<?xml version="1.0" ?><svg id="Layer_1" style="enable-background:new 0 0 64 64;" version="1.1" viewBox="0 0 64 64" xml:space="preserve" xmlns="http://www.w3.org/2000/svg" xmlns:xlink="http://www.w3.org/1999/xlink"><g><path d="M52.00069,19.66052c2.46034-4.14833-0.6463-9.34156-5.35254-9.27539c0.06146-4.73808-5.14453-7.83397-9.28516-5.35303   c-1.08398-1.9126-3.11719-3.1333-5.36719-3.1333c-2.24219,0-4.27148,1.21826-5.35645,3.12646   c-4.14983-2.47208-9.34653,0.62835-9.28516,5.35986c-4.72017-0.05858-7.80476,5.11121-5.34473,9.27295   c-1.91211,1.07666-3.13281,3.10645-3.13281,5.36035c0,2.25586,1.2168,4.2876,3.125,5.36719   c-2.40196,4.03584,0.45146,9.27442,5.35449,9.27442c-0.0127,1.37286,0.45996,2.72498,1.31775,3.83069   c-0.00531-0.00122-0.01093-0.00214-0.01624-0.00336c-3.31006,4.91003-6.89001,9.71002-8.88,15.09003   c-0.04004,0.08002,0.03998,0.14996,0.10999,0.09998c2.27002-1.31,4.73999-2.54999,7.32001-3.75   c0.04999-0.01996,0.10999,0,0.10999,0.06c0.45001,2.29999,0.98999,4.64001,1.73999,7.06   c0.02002,0.07001,0.13,0.07001,0.16003,0.01001c2.01886-5.43921,5.64978-10.29309,8.98505-15.23828   c1.58553,1.23872,3.68069,1.73536,5.8216,0.98248c3.14978,4.60718,6.43451,9.17426,8.3233,14.2558   c0.02002,0.06,0.13,0.06,0.15002-0.01001c0.75-2.41998,1.29999-4.76001,1.73999-7.06c0-0.06,0.07001-0.07996,0.10999-0.06   c2.59003,1.20001,5.06006,2.44,7.33002,3.75c0.06,0.04999,0.14001-0.01996,0.10999-0.09998   c-1.82373-4.86029-4.91779-9.2597-7.94971-13.69061c1.78741-1.16602,2.83441-3.13788,2.80927-5.22723   c4.72117,0.09442,7.81887-5.16117,5.3584-9.27637C56.16228,28.02786,56.16453,22.01015,52.00069,19.66052z M50.29366,28.96814   l-0.50977,0.11279c-0.05888,0.29333-0.5846,0.95389,0.0166,1.67285c2.65673,2.94254-0.01658,7.645-3.93262,6.81787   c-0.95166-0.23615-1.33055,0.74136-1.52832,0.91846l0.23828,0.47998c0.72544,3.93446-3.94339,6.47926-6.87402,3.82813   c-0.69012-0.57769-1.42883-0.01015-1.66113,0.04004l-0.10352,0.49463c-1.32173,3.78932-6.62457,3.69097-7.88477-0.00342   l-0.11621-0.50977l-0.54492-0.20313c-0.37305-0.13867-0.78809-0.06299-1.11914,0.21484   c-1.61417,1.4486-4.27711,1.48863-5.90039-0.3877c-0.84375-0.97656-1.19141-2.29492-0.93652-3.53613   c0.09961-0.3457,0.02148-0.7207-0.21973-0.99756l-0.53125-0.52539l-0.57715,0.19238   c-3.90597,0.78883-6.5697-3.87198-3.87988-6.85352c0.25781-0.30957,0.33203-0.73047,0.19434-1.09863l-0.2627-0.59131   l-0.49121-0.0791c-1.67383-0.58545-2.79297-2.15723-2.79297-3.93604c0-1.79688,1.15039-3.38379,2.87109-3.95068   c0.85254-0.28839,0.73592-1.18497,0.80566-1.3833l-0.34863-0.3877c-2.68571-2.99594,0.08554-7.65111,3.92871-6.8208   c0.95193,0.23505,1.33692-0.75618,1.5293-0.93066l-0.23828-0.47949c-0.7104-3.83636,3.88437-6.49991,6.84961-3.83789   l0.1123,0.08643c0.31934,0.21436,0.71582,0.25293,1.06445,0.10107l0.54688-0.27832L28.071,6.68396   c0.59668-1.66943,2.16406-2.78516,3.9248-2.78516c1.78711,0,3.37207,1.14258,3.95313,2.8457l0.1123,0.47266   c0.26144,0.06773,0.87303,0.56912,1.55566,0.1084l0.11426-0.08887c1.34082-1.21143,3.28418-1.41748,4.83887-0.5127   c1.52637,0.88867,2.3418,2.69482,1.99609,4.40723c-0.2444,0.8459,0.5642,1.27192,0.75293,1.53418l0.5791-0.1958   c3.87764-0.80529,6.53431,3.8867,3.9375,6.7876c-0.63639,0.63639-0.13415,1.40128-0.10547,1.63721l0.5332,0.17578   C54.05974,22.32122,54.07504,27.68918,50.29366,28.96814z"/><path d="M31.99764,10.9574c-7.77002,0-14.07001,6.29999-14.07001,14.07001c0,7.76996,6.29999,14.07001,14.07001,14.07001   s14.08002-6.30005,14.08002-14.07001C46.07766,17.25739,39.76766,10.9574,31.99764,10.9574z M41.05764,22.97736l-4.42999,4.37006   c-0.02002,0.01996-0.02002,0.03998-0.02002,0.06l1.09003,6.12995c0.01001,0.06006-0.03998,0.09003-0.09003,0.07001l-5.52997-2.87   c-0.02002-0.01001-0.04004-0.01001-0.06,0l-5.5,2.94c-0.04004,0.02002-0.10004-0.01996-0.09003-0.07001l1.02002-6.14997   c0-0.02002-0.01001-0.04004-0.02002-0.04999l-4.48999-4.32001c-0.02997-0.04004-0.02002-0.10004,0.03998-0.11005l6.16003-0.92999   c0.02002-0.01001,0.02997-0.01996,0.03998-0.03998l2.73004-5.59998c0.01996-0.05005,0.08997-0.05005,0.10999,0l2.78998,5.56995   c0.01001,0.02002,0.03003,0.03003,0.04999,0.03003l6.17004,0.85999C41.07766,22.87738,41.09761,22.93738,41.05764,22.97736z"/></g></svg>