<svg width="330" height="126" viewBox="0 0 330 126" fill="none" xmlns="http://www.w3.org/2000/svg">
<g clip-path="url(#clip0_1_2)">
<path d="M167.72 34.75C167.72 34.75 160.83 28.57 152.01 20.66C151.1 19.77 148.16 17.51 148.08 13.25C148.04 8.03 152.34 3.79 157.59 3.79C157.61 3.79 157.64 3.79 157.66 3.79C157.65 2.01 157.65 2.01 157.7 0.34C157.66 0.34 157.63 0.34 157.59 0.34C150.43 0.34 144.64 6.12 144.62 13.25C144.48 18.6 147.27 21.24 148.24 22.19C148.55 22.47 148.85 22.74 149.14 23.01C158.03 31.11 158.12 31.23 165.35 37.39C165.35 37.38 167.71 34.76 167.72 34.75Z" fill="#D88BAA"/>
<path d="M170.02 32.2L151.67 14.95C151.67 14.95 163.01 3.72 163.9 2.9C165.33 1.32 172.43 -2.63 179.15 2.9C186.54 9.16 184.85 16.45 179.44 21.98C177.1 19.82 176.84 19.46 176.84 19.46C176.84 19.46 184.94 12.22 177.55 5.7C170.95 0.33 165.32 6.08 165.32 6.08L156.79 14.81L172.33 29.69L170.02 32.2Z" fill="#D88BAA"/>
<path d="M171.97 19.83C171.97 19.83 175.37 16.26 176.2 14.98C177.03 13.7 177.53 10.9 174.87 8.77C171.49 5.98 167.89 9.19 167.89 9.19L162.25 15.14L174.64 27.15L176.95 24.62L171.97 19.83ZM166.79 14.66C166.79 14.66 169.26 12.16 170.16 11.17C171.12 10.31 172.63 10.31 173.43 11.24C174.61 12.53 173.18 14.3 173.18 14.3L169.95 17.81L166.79 14.66Z" fill="#D88BAA"/>
<path d="M12.76 77.3C12.94 77.3 12.94 77.84 12.76 77.84C10.82 77.84 8.6 77.75 5.94 77.75C3.95 77.75 2.1 77.84 0.609997 77.84C0.469997 77.84 0.469997 77.3 0.609997 77.3C3.91 77.3 4.49 76.8 4.49 74.2V53.4C4.49 50.84 3.9 50.3 0.609997 50.3C0.469997 50.3 0.469997 49.76 0.609997 49.76C2.1 49.76 3.91 49.89 5.89 49.89C7.43 49.89 9.86 49.62 12.21 49.62C17.31 49.62 21.29 51.78 21.33 56.99C21.37 63.28 15.95 66.07 11.39 66.07C10.62 66.07 9.85 66.03 9.18 65.85C8.95 65.81 9.09 65.22 9.27 65.27C9.81 65.4 10.4 65.45 10.9 65.45C14.6 65.45 17.99 63.07 17.99 57.9C17.99 53.05 14.96 50.31 11.08 50.31C8.1 50.31 7.38 50.49 7.38 53.5V74.04C7.39 76.72 8.11 77.3 12.76 77.3Z" fill="#201600" stroke="#201600" stroke-width="0.5" stroke-miterlimit="10"/>
<path d="M25.46 63.82C25.46 54.07 34.04 49.26 41.36 49.26C50.26 49.26 55.63 56.27 55.63 63.51C55.63 71.87 48.36 78.38 39.78 78.38C31.1 78.38 25.46 71.73 25.46 63.82ZM52.19 64.77C52.19 56.37 47.22 50.3 39.5 50.3C32.77 50.3 28.89 54.88 28.89 62.25C28.89 70.74 33.95 77.44 41.4 77.44C47.41 77.44 52.19 72.95 52.19 64.77Z" fill="#201600" stroke="#201600" stroke-width="0.5" stroke-miterlimit="10"/>
<path d="M70.76 62.43C74.1 64.45 77.58 66.39 77.58 70.7C77.58 74.97 74.28 78.38 68.28 78.38C66.11 78.38 63.99 77.89 61.91 76.81C61.59 76.63 61.55 76.41 61.5 75.96L60.91 69.85C60.87 69.58 61.36 69.54 61.45 69.76C62.22 73.35 64.52 77.67 69.31 77.67C71.97 77.67 74.68 76.41 74.68 72.5C74.68 68.19 71.38 66.25 68.13 64.28C64.88 62.35 61.72 60.46 61.72 56.28C61.72 51.56 65.97 49.27 70.12 49.27C71.79 49.27 73.64 49.58 75.4 50.35C75.85 50.53 76.12 50.8 76.12 51.11L76.39 56.28C76.39 56.5 75.94 56.55 75.85 56.28C75.58 53.9 73.82 49.94 69.39 49.94C65.82 49.94 64.38 52.41 64.38 55.02C64.39 58.75 67.56 60.54 70.76 62.43Z" fill="#201600" stroke="#201600" stroke-width="0.5" stroke-miterlimit="10"/>
<path d="M82.28 56.9C82.24 57.04 81.74 57.04 81.74 56.86C81.97 55.38 82.37 50.79 82.37 48.77C82.37 48.5 82.91 48.46 82.91 48.77C82.91 49.67 84.45 49.76 85.3 49.76C87.88 49.85 90.99 49.89 94.38 49.89C98.63 49.89 100.79 49.76 103.1 49.76C105.13 49.76 106.22 49.58 106.53 48.64C106.57 48.42 107.03 48.42 107.03 48.64C106.85 50.44 106.62 55.47 106.62 56.86C106.62 57.04 106.12 57.04 106.08 56.86C105.9 52.23 104.32 50.57 100.3 50.57C96.51 50.57 95.92 50.84 95.92 53.49V74.2C95.92 76.81 96.51 77.3 100.3 77.3C100.48 77.3 100.48 77.84 100.3 77.84C98.67 77.84 96.78 77.75 94.38 77.75C92.17 77.75 90.13 77.84 88.51 77.84C88.37 77.84 88.37 77.3 88.51 77.3C92.26 77.3 92.94 76.8 92.94 74.2V53.4C92.94 50.7 92.26 50.57 88.56 50.57C84.77 50.57 83.05 52.32 82.28 56.9Z" fill="#201600" stroke="#201600" stroke-width="0.5" stroke-miterlimit="10"/>
<path d="M130.66 71.24C130.43 72.81 130.25 75.28 130.25 77.17C130.25 77.66 130.07 77.84 129.57 77.84H110.65C110.47 77.84 110.47 77.3 110.65 77.3C113.95 77.3 114.49 76.8 114.49 74.2V53.4C114.49 50.84 113.95 50.3 110.65 50.3C110.47 50.3 110.47 49.76 110.65 49.76H128.76C129.08 49.76 129.17 49.89 129.17 50.16L129.31 55.73C129.31 55.86 128.77 55.86 128.77 55.73C128.54 52.54 126.69 50.7 123.8 50.7H121.05C118.02 50.7 117.44 51.24 117.44 53.62V62.79H122.95C125.84 62.79 126.97 61.85 126.97 59.6C126.97 59.47 127.51 59.47 127.51 59.6C127.51 61.4 127.47 62.16 127.47 63.24C127.47 64.63 127.56 65.89 127.56 67.37C127.56 67.55 127.02 67.55 127.02 67.37C127.02 64.76 125.85 63.69 122.82 63.69H117.45V74.02C117.45 76.36 118.04 76.9 120.97 76.9H124.58C127.43 76.9 129.5 74.7 130.14 71.15C130.16 71.01 130.66 71.06 130.66 71.24Z" fill="#201600" stroke="#201600" stroke-width="0.5" stroke-miterlimit="10"/>
<path d="M141.28 74.02C141.28 76.45 141.82 76.9 144.94 76.9H149.82C153.34 76.9 155.38 74.52 155.96 70.92C155.96 70.79 156.5 70.83 156.5 71.01C156.27 72.67 156.05 75.23 156.05 77.17C156.05 77.66 155.91 77.84 155.37 77.84H134.5C134.36 77.84 134.36 77.3 134.5 77.3C137.8 77.3 138.34 76.8 138.34 74.2V53.4C138.34 50.84 137.8 50.3 134.5 50.3C134.36 50.3 134.36 49.76 134.5 49.76C135.95 49.76 137.8 49.89 139.78 49.89C141.9 49.89 143.71 49.76 145.11 49.76C145.29 49.76 145.29 50.3 145.11 50.3C141.81 50.3 141.27 50.88 141.27 53.45V74.02H141.28Z" fill="#201600" stroke="#201600" stroke-width="0.5" stroke-miterlimit="10"/>
<path d="M174.48 77.75C172.49 77.75 170.6 77.84 169.15 77.84C169.01 77.84 169.01 77.3 169.15 77.3C172.45 77.3 173.08 76.8 173.08 74.2V53.4C173.08 50.84 172.49 50.3 169.2 50.3C169.06 50.3 169.06 49.76 169.2 49.76C170.69 49.76 172.5 49.89 174.48 49.89C176.46 49.89 179 49.67 180.62 49.67C190.24 49.67 196.56 55.6 196.56 63.33C196.56 72.32 189.56 78.02 181.25 78.02C179.49 78.02 176.6 77.75 174.48 77.75ZM193.13 64.32C193.13 56.5 188.48 50.34 181.02 50.34C177.36 50.34 175.96 50.74 175.96 53.49V73.71C175.96 76.18 176.82 77.35 180.79 77.35C187.94 77.35 193.13 72.77 193.13 64.32Z" fill="#201600" stroke="#201600" stroke-width="0.5" stroke-miterlimit="10"/>
<path d="M220.78 71.24C220.55 72.81 220.37 75.28 220.37 77.17C220.37 77.66 220.19 77.84 219.69 77.84H200.77C200.59 77.84 200.59 77.3 200.77 77.3C204.07 77.3 204.61 76.8 204.61 74.2V53.4C204.61 50.84 204.07 50.3 200.77 50.3C200.59 50.3 200.59 49.76 200.77 49.76H218.88C219.2 49.76 219.29 49.89 219.29 50.16L219.42 55.73C219.42 55.86 218.88 55.86 218.88 55.73C218.65 52.54 216.8 50.7 213.91 50.7H211.15C208.12 50.7 207.54 51.24 207.54 53.62V62.79H213.05C215.94 62.79 217.07 61.85 217.07 59.6C217.07 59.47 217.61 59.47 217.61 59.6C217.61 61.4 217.57 62.16 217.57 63.24C217.57 64.63 217.66 65.89 217.66 67.37C217.66 67.55 217.12 67.55 217.12 67.37C217.12 64.76 215.95 63.69 212.92 63.69H207.54V74.02C207.54 76.36 208.13 76.9 211.06 76.9H214.67C217.52 76.9 219.59 74.7 220.23 71.15C220.28 71.01 220.78 71.06 220.78 71.24Z" fill="#201600" stroke="#201600" stroke-width="0.5" stroke-miterlimit="10"/>
<path d="M231.4 74.02C231.4 76.45 231.94 76.9 235.06 76.9H239.94C243.46 76.9 245.49 74.52 246.08 70.92C246.08 70.79 246.62 70.83 246.62 71.01C246.39 72.67 246.17 75.23 246.17 77.17C246.17 77.66 246.03 77.84 245.49 77.84H224.62C224.48 77.84 224.48 77.3 224.62 77.3C227.92 77.3 228.46 76.8 228.46 74.2V53.4C228.46 50.84 227.92 50.3 224.62 50.3C224.48 50.3 224.48 49.76 224.62 49.76C226.07 49.76 227.92 49.89 229.9 49.89C232.02 49.89 233.83 49.76 235.23 49.76C235.41 49.76 235.41 50.3 235.23 50.3C231.93 50.3 231.39 50.88 231.39 53.45V74.02H231.4Z" fill="#201600" stroke="#201600" stroke-width="0.5" stroke-miterlimit="10"/>
<path d="M269.03 50.3C268.85 50.3 268.85 49.76 269.03 49.76C270.39 49.76 271.79 49.89 273.5 49.89C274.99 49.89 276.44 49.76 277.66 49.76C277.8 49.76 277.8 50.3 277.66 50.3C275.22 50.3 274.05 51.74 274.05 54.66V67.47C274.05 74.44 269.8 78.43 263.39 78.43C256.66 78.43 252.28 74.3 252.28 67.78V53.4C252.28 50.84 251.74 50.3 248.44 50.3C248.26 50.3 248.26 49.76 248.44 49.76C249.89 49.76 251.74 49.89 253.73 49.89C255.81 49.89 257.66 49.76 259.06 49.76C259.2 49.76 259.2 50.3 259.06 50.3C255.76 50.3 255.22 50.93 255.22 53.49V66.21C255.22 73.31 258.61 77.04 264.39 77.04C269.77 77.04 272.97 73.49 272.97 67.51V54.66C272.96 51.74 271.65 50.3 269.03 50.3Z" fill="#201600" stroke="#201600" stroke-width="0.5" stroke-miterlimit="10"/>
<path d="M307.33 77.84C306.11 77.84 304.62 77.75 302.99 77.75C300.6 77.75 298.83 77.84 297.3 77.84C297.12 77.84 297.12 77.3 297.3 77.3C299.51 77.3 300.1 76.85 299.2 75.55L292.33 65.21L286.59 73.25C284.74 75.86 285.33 77.29 288.17 77.29C288.35 77.29 288.35 77.83 288.17 77.83C286.54 77.83 285.37 77.74 282.98 77.74C281.49 77.74 280.77 77.83 279.41 77.83C279.23 77.83 279.23 77.29 279.41 77.29C281.4 77.29 283.52 75.94 285.55 73.2L291.92 64.57L284.65 53.56C283.02 51.18 281.67 50.28 279.59 50.28C279.41 50.28 279.41 49.74 279.59 49.74C280.67 49.74 281.94 49.87 283.02 49.87C285.46 49.87 287.54 49.74 289.12 49.74C289.26 49.74 289.26 50.28 289.12 50.28C286.91 50.28 286.27 50.73 287.18 52.08L293.86 62.15L299.14 54.65C301.13 51.82 300.68 50.29 297.83 50.29C297.65 50.29 297.65 49.75 297.83 49.75C299.41 49.75 300.63 49.88 302.98 49.88C304.52 49.88 305.24 49.75 306.59 49.75C306.72 49.75 306.72 50.29 306.59 50.29C304.56 50.29 302.34 51.82 300.18 54.74L294.26 62.78L301.8 74.1C303.34 76.44 304.83 77.29 307.31 77.29C307.51 77.3 307.51 77.84 307.33 77.84Z" fill="#201600" stroke="#201600" stroke-width="0.5" stroke-miterlimit="10"/>
<path d="M330.05 71.24C329.82 72.81 329.64 75.28 329.64 77.17C329.64 77.66 329.46 77.84 328.96 77.84H310.04C309.86 77.84 309.86 77.3 310.04 77.3C313.34 77.3 313.88 76.8 313.88 74.2V53.4C313.88 50.84 313.34 50.3 310.04 50.3C309.86 50.3 309.86 49.76 310.04 49.76H328.15C328.47 49.76 328.56 49.89 328.56 50.16L328.69 55.73C328.69 55.86 328.15 55.86 328.15 55.73C327.92 52.54 326.07 50.7 323.18 50.7H320.42C317.39 50.7 316.81 51.24 316.81 53.62V62.79H322.32C325.21 62.79 326.34 61.85 326.34 59.6C326.34 59.47 326.88 59.47 326.88 59.6C326.88 61.4 326.84 62.16 326.84 63.24C326.84 64.63 326.93 65.89 326.93 67.37C326.93 67.55 326.39 67.55 326.39 67.37C326.39 64.76 325.22 63.69 322.19 63.69H316.81V74.02C316.81 76.36 317.4 76.9 320.33 76.9H323.94C326.79 76.9 328.86 74.7 329.5 71.15C329.56 71.01 330.05 71.06 330.05 71.24Z" fill="#201600" stroke="#201600" stroke-width="0.5" stroke-miterlimit="10"/>
<path d="M56.67 103.73H62.03V110.96H61.55V104.17H57.15V110.96H56.67V103.73V103.73Z" fill="#201600" stroke="#201600" stroke-width="0.3" stroke-miterlimit="10"/>
<path d="M69.66 103.73V104.16H66.65V106.78H69.59V107.21H66.65V110.52H69.66V110.95H66.17V103.72H69.66V103.73Z" fill="#201600" stroke="#201600" stroke-width="0.3" stroke-miterlimit="10"/>
<path d="M74.82 107.52H73.88V110.96H73.4V103.73H74.81C75.43 103.73 75.94 103.89 76.33 104.22C76.72 104.55 76.93 105.01 76.93 105.61C76.93 106.2 76.74 106.67 76.35 107.01C75.97 107.35 75.46 107.52 74.82 107.52ZM73.88 104.16V107.09H74.84C75.32 107.09 75.7 106.96 76 106.69C76.29 106.43 76.44 106.07 76.44 105.62C76.44 105.16 76.29 104.81 76 104.55C75.71 104.29 75.3 104.16 74.77 104.16H73.88V104.16Z" fill="#201600" stroke="#201600" stroke-width="0.3" stroke-miterlimit="10"/>
<path d="M80.44 110.96V103.73H82.03C82.66 103.73 83.15 103.89 83.5 104.22C83.85 104.55 84.03 104.99 84.03 105.54C84.03 106.25 83.75 106.78 83.18 107.12C83.64 107.19 84.01 107.4 84.28 107.73C84.55 108.06 84.68 108.46 84.68 108.93C84.68 109.55 84.47 110.04 84.05 110.41C83.63 110.78 83.09 110.96 82.42 110.96H80.44V110.96ZM80.92 104.16V107H82.07C82.48 107 82.81 106.9 83.06 106.7C83.38 106.44 83.54 106.07 83.54 105.59C83.54 105.11 83.38 104.73 83.05 104.46C82.79 104.26 82.38 104.16 81.84 104.16H80.92V104.16ZM80.92 107.44V110.53H82.14C82.36 110.53 82.54 110.52 82.67 110.51C82.8 110.5 82.97 110.46 83.18 110.4C83.39 110.33 83.57 110.23 83.72 110.1C84.03 109.83 84.19 109.46 84.19 108.99C84.19 108.33 83.93 107.88 83.42 107.65C83.11 107.51 82.65 107.44 82.06 107.44H80.92V107.44Z" fill="#201600" stroke="#201600" stroke-width="0.3" stroke-miterlimit="10"/>
<path d="M88.44 110.96V103.73H88.92V106.84H90.18C91.85 106.84 92.68 107.5 92.68 108.82C92.68 109.42 92.49 109.93 92.1 110.34C91.71 110.75 91.12 110.96 90.33 110.96H88.44ZM88.92 107.27V110.52H90.14C90.87 110.52 91.4 110.36 91.73 110.04C92.04 109.75 92.19 109.34 92.19 108.82C92.19 108.19 91.94 107.75 91.44 107.49C91.16 107.35 90.7 107.27 90.06 107.27H88.92ZM93.51 103.73H93.99V110.96H93.51V103.73Z" fill="#201600" stroke="#201600" stroke-width="0.3" stroke-miterlimit="10"/>
<path d="M103.32 110.96V104.93L98.14 111.14V103.73H98.62V109.86L103.8 103.65V110.95H103.32V110.96ZM101.83 102.97C101.54 103.11 101.25 103.18 100.96 103.18C100.67 103.18 100.38 103.11 100.09 102.97C99.8 102.83 99.58 102.59 99.43 102.26L99.81 102.05C100.02 102.51 100.4 102.74 100.95 102.74C101.5 102.74 101.88 102.51 102.09 102.05L102.47 102.26C102.33 102.59 102.12 102.83 101.83 102.97Z" fill="#201600" stroke="#201600" stroke-width="0.3" stroke-miterlimit="10"/>
<path d="M113.05 110.96H112.57L113.4 103.48L116.55 110.17L119.7 103.48L120.53 110.96H120.05L119.41 105.15L116.56 111.22L113.71 105.15L113.05 110.96Z" fill="#201600" stroke="#201600" stroke-width="0.3" stroke-miterlimit="10"/>
<path d="M129.32 110.96L128.35 108.59H125.26L124.29 110.96H123.77L126.83 103.51L129.85 110.96H129.32ZM125.43 108.15H128.18L126.82 104.73L125.43 108.15Z" fill="#201600" stroke="#201600" stroke-width="0.3" stroke-miterlimit="10"/>
<path d="M134.57 107.52H133.63V110.96H133.15V103.73H134.56C135.18 103.73 135.69 103.89 136.08 104.22C136.47 104.55 136.68 105.01 136.68 105.61C136.68 106.2 136.49 106.67 136.1 107.01C135.72 107.35 135.21 107.52 134.57 107.52ZM133.63 104.16V107.09H134.59C135.07 107.09 135.45 106.96 135.75 106.69C136.04 106.43 136.19 106.07 136.19 105.62C136.19 105.16 136.04 104.81 135.75 104.55C135.46 104.29 135.05 104.16 134.52 104.16H133.63V104.16Z" fill="#201600" stroke="#201600" stroke-width="0.3" stroke-miterlimit="10"/>
<path d="M140.67 103.73V107.13L144.1 103.73H144.73L141.21 107.19L144.94 110.96H144.29L140.87 107.51L140.67 107.69V110.95H140.19V103.72H140.67V103.73Z" fill="#201600" stroke="#201600" stroke-width="0.3" stroke-miterlimit="10"/>
<path d="M151.73 103.73V104.16H148.72V106.78H151.66V107.21H148.72V110.52H151.73V110.95H148.24V103.72H151.73V103.73Z" fill="#201600" stroke="#201600" stroke-width="0.3" stroke-miterlimit="10"/>
<path d="M158.9 104.16H157.02V110.95H156.54V104.16H154.66V103.73H158.91V104.16H158.9Z" fill="#201600" stroke="#201600" stroke-width="0.3" stroke-miterlimit="10"/>
<path d="M162.21 103.73H167.57V110.96H167.09V104.17H162.69V110.96H162.21V103.73V103.73Z" fill="#201600" stroke="#201600" stroke-width="0.3" stroke-miterlimit="10"/>
<path d="M172.41 103.73H176.51V110.96H176.03V104.17H172.89V108.38C172.89 108.74 172.88 109.02 172.87 109.22C172.86 109.42 172.81 109.65 172.73 109.93C172.65 110.21 172.53 110.43 172.37 110.6C172.11 110.89 171.76 111.03 171.31 111.03C171.19 111.03 171.05 111.01 170.87 110.97V110.54C171.02 110.58 171.15 110.6 171.27 110.6C171.55 110.6 171.79 110.51 171.98 110.32C172.11 110.19 172.21 110 172.27 109.76C172.34 109.52 172.37 109.31 172.38 109.15C172.39 108.98 172.39 108.73 172.39 108.38V103.73H172.41Z" fill="#201600" stroke="#201600" stroke-width="0.3" stroke-miterlimit="10"/>
<path d="M184.13 103.73V104.16H181.12V106.78H184.06V107.21H181.12V110.52H184.13V110.95H180.64V103.72H184.13V103.73Z" fill="#201600" stroke="#201600" stroke-width="0.3" stroke-miterlimit="10"/>
<path d="M193.06 110.96V104.93L187.88 111.14V103.73H188.36V109.86L193.54 103.65V110.95H193.06V110.96ZM191.57 102.97C191.28 103.11 190.99 103.18 190.7 103.18C190.41 103.18 190.12 103.11 189.83 102.97C189.54 102.83 189.32 102.59 189.17 102.26L189.55 102.05C189.76 102.51 190.14 102.74 190.69 102.74C191.24 102.74 191.62 102.51 191.83 102.05L192.21 102.26C192.08 102.59 191.86 102.83 191.57 102.97Z" fill="#201600" stroke="#201600" stroke-width="0.3" stroke-miterlimit="10"/>
<path d="M203.49 104.58V105.21C203.18 104.85 202.81 104.57 202.38 104.37C201.96 104.17 201.51 104.07 201.03 104.07C200.11 104.07 199.33 104.39 198.71 105.03C198.08 105.67 197.77 106.46 197.77 107.38C197.77 107.89 197.87 108.36 198.07 108.79C198.27 109.22 198.53 109.56 198.85 109.83C199.17 110.1 199.52 110.3 199.9 110.44C200.28 110.58 200.65 110.65 201.03 110.65C201.44 110.65 201.86 110.56 202.29 110.38C202.73 110.2 203.12 109.93 203.47 109.55V110.18C202.79 110.78 201.98 111.08 201.05 111.08C199.97 111.08 199.07 110.71 198.35 109.99C197.62 109.26 197.26 108.39 197.26 107.37C197.26 106.33 197.63 105.45 198.36 104.73C199.09 104.01 199.98 103.65 201.03 103.65C202.01 103.63 202.83 103.95 203.49 104.58Z" fill="#201600" stroke="#201600" stroke-width="0.3" stroke-miterlimit="10"/>
<path d="M215.38 104.16H213.5V110.95H213.02V104.16H211.14V103.73H215.39V104.16H215.38Z" fill="#201600" stroke="#201600" stroke-width="0.3" stroke-miterlimit="10"/>
<path d="M222.17 103.73V104.16H219.16V106.78H222.1V107.21H219.16V110.52H222.17V110.95H218.68V103.72H222.17V103.73Z" fill="#201600" stroke="#201600" stroke-width="0.3" stroke-miterlimit="10"/>
<path d="M226.4 103.73V107.13L229.83 103.73H230.46L226.94 107.19L230.67 110.96H230.02L226.6 107.51L226.4 107.69V110.95H225.92V103.72H226.4V103.73Z" fill="#201600" stroke="#201600" stroke-width="0.3" stroke-miterlimit="10"/>
<path d="M239.8 104.58V105.21C239.49 104.85 239.12 104.57 238.69 104.37C238.27 104.17 237.82 104.07 237.34 104.07C236.42 104.07 235.64 104.39 235.02 105.03C234.39 105.67 234.08 106.46 234.08 107.38C234.08 107.89 234.18 108.36 234.38 108.79C234.58 109.22 234.84 109.56 235.16 109.83C235.48 110.1 235.83 110.3 236.21 110.44C236.59 110.58 236.96 110.65 237.34 110.65C237.75 110.65 238.17 110.56 238.6 110.38C239.04 110.2 239.43 109.93 239.78 109.55V110.18C239.1 110.78 238.29 111.08 237.36 111.08C236.28 111.08 235.38 110.71 234.66 109.99C233.93 109.26 233.57 108.39 233.57 107.37C233.57 106.33 233.94 105.45 234.67 104.73C235.4 104.01 236.29 103.65 237.34 103.65C238.32 103.63 239.13 103.95 239.8 104.58Z" fill="#201600" stroke="#201600" stroke-width="0.3" stroke-miterlimit="10"/>
<path d="M246.96 104.16H245.08V110.95H244.6V104.16H242.72V103.73H246.97V104.16H246.96Z" fill="#201600" stroke="#201600" stroke-width="0.3" stroke-miterlimit="10"/>
<path d="M255.46 110.96V104.93L250.28 111.14V103.73H250.76V109.86L255.94 103.65V110.95H255.46V110.96Z" fill="#201600" stroke="#201600" stroke-width="0.3" stroke-miterlimit="10"/>
<path d="M260.78 103.73H264.88V110.96H264.4V104.17H261.26V108.38C261.26 108.74 261.25 109.02 261.24 109.22C261.23 109.42 261.18 109.65 261.1 109.93C261.02 110.21 260.9 110.43 260.74 110.6C260.48 110.89 260.13 111.03 259.68 111.03C259.56 111.03 259.42 111.01 259.24 110.97V110.54C259.39 110.58 259.52 110.6 259.64 110.6C259.92 110.6 260.16 110.51 260.35 110.32C260.48 110.19 260.58 110 260.64 109.76C260.71 109.52 260.74 109.31 260.75 109.15C260.76 108.98 260.76 108.73 260.76 108.38V103.73H260.78Z" fill="#201600" stroke="#201600" stroke-width="0.3" stroke-miterlimit="10"/>
<path d="M268.4 110.96L270.6 107.72C270.32 107.71 270.05 107.66 269.78 107.56C269.69 107.52 269.59 107.48 269.49 107.41C269.39 107.35 269.27 107.25 269.12 107.12C268.97 106.99 268.85 106.8 268.75 106.56C268.66 106.32 268.61 106.04 268.61 105.73C268.61 105.3 268.7 104.95 268.89 104.66C269.08 104.37 269.3 104.16 269.56 104.02C269.88 103.83 270.33 103.74 270.92 103.74H272.16V110.97H271.68V107.73H271.14L268.96 110.97H268.4V110.96ZM271.69 104.16H270.93C270.51 104.16 270.18 104.22 269.94 104.33C269.69 104.45 269.49 104.63 269.34 104.87C269.2 105.12 269.12 105.4 269.12 105.72C269.12 106.23 269.28 106.62 269.6 106.9C269.88 107.15 270.3 107.28 270.86 107.28H271.69V104.16V104.16Z" fill="#201600" stroke="#201600" stroke-width="0.3" stroke-miterlimit="10"/>
<path d="M132.09 116.73H136.19V123.52H137.02V125.41H136.56V123.96H131.14V125.41H130.68V123.52C130.93 123.53 131.15 123.44 131.36 123.25C131.56 123.07 131.72 122.83 131.84 122.54C132.01 122.1 132.1 121.47 132.1 120.64V116.73H132.09ZM132.57 117.17V120.66C132.57 121.55 132.48 122.22 132.31 122.68C132.19 123.01 132 123.29 131.75 123.54H135.7V117.18H132.57V117.17Z" fill="#201600" stroke="#201600" stroke-width="0.3" stroke-miterlimit="10"/>
<path d="M141.02 116.73H145.12V123.96H144.64V117.17H141.5V121.38C141.5 121.74 141.49 122.02 141.48 122.22C141.47 122.42 141.42 122.65 141.34 122.93C141.26 123.21 141.14 123.43 140.98 123.6C140.72 123.89 140.37 124.03 139.92 124.03C139.8 124.03 139.66 124.01 139.48 123.97V123.54C139.63 123.58 139.76 123.6 139.88 123.6C140.16 123.6 140.4 123.51 140.59 123.32C140.72 123.19 140.82 123 140.88 122.76C140.95 122.52 140.98 122.31 140.99 122.15C141 121.98 141 121.73 141 121.38V116.73H141.02Z" fill="#201600" stroke="#201600" stroke-width="0.3" stroke-miterlimit="10"/>
<path d="M148.65 123.96L150.85 120.72C150.57 120.71 150.3 120.66 150.03 120.56C149.94 120.52 149.84 120.48 149.74 120.41C149.64 120.35 149.52 120.25 149.37 120.12C149.22 119.99 149.1 119.8 149 119.56C148.91 119.32 148.86 119.04 148.86 118.73C148.86 118.3 148.95 117.95 149.14 117.66C149.33 117.37 149.55 117.16 149.81 117.02C150.13 116.83 150.58 116.74 151.17 116.74H152.41V123.97H151.93V120.73H151.39L149.21 123.97H148.65V123.96ZM151.94 117.17H151.18C150.76 117.17 150.43 117.23 150.19 117.34C149.94 117.46 149.74 117.64 149.59 117.88C149.45 118.13 149.37 118.41 149.37 118.73C149.37 119.24 149.53 119.63 149.85 119.91C150.13 120.16 150.55 120.29 151.11 120.29H151.94V117.17Z" fill="#201600" stroke="#201600" stroke-width="0.3" stroke-miterlimit="10"/>
<path d="M161.86 116.73H165.96V123.52H166.79V125.41H166.33V123.96H160.91V125.41H160.45V123.52C160.7 123.53 160.92 123.44 161.13 123.25C161.33 123.07 161.49 122.83 161.61 122.54C161.78 122.1 161.87 121.47 161.87 120.64V116.73H161.86ZM162.34 117.17V120.66C162.34 121.55 162.25 122.22 162.08 122.68C161.96 123.01 161.77 123.29 161.52 123.54H165.47V117.18H162.34V117.17Z" fill="#201600" stroke="#201600" stroke-width="0.3" stroke-miterlimit="10"/>
<path d="M170.79 117.72C171.52 117 172.41 116.64 173.47 116.64C174.53 116.64 175.42 117 176.15 117.72C176.88 118.44 177.24 119.32 177.24 120.36C177.24 121.4 176.88 122.28 176.15 123C175.42 123.72 174.53 124.08 173.47 124.08C172.41 124.08 171.52 123.72 170.79 123C170.06 122.28 169.7 121.4 169.7 120.36C169.7 119.32 170.06 118.44 170.79 117.72ZM171.14 122.7C171.76 123.33 172.54 123.65 173.47 123.65C174.4 123.65 175.18 123.33 175.8 122.7C176.42 122.07 176.74 121.29 176.74 120.37C176.74 119.44 176.43 118.66 175.8 118.02C175.17 117.39 174.4 117.07 173.47 117.07C172.54 117.07 171.76 117.39 171.14 118.02C170.51 118.65 170.2 119.43 170.2 120.37C170.2 121.29 170.51 122.07 171.14 122.7Z" fill="#201600" stroke="#201600" stroke-width="0.3" stroke-miterlimit="10"/>
<path d="M181.39 123.96H180.91L181.74 116.48L184.89 123.17L188.04 116.48L188.87 123.96H188.39L187.75 118.15L184.9 124.22L182.05 118.15L181.39 123.96Z" fill="#201600" stroke="#201600" stroke-width="0.3" stroke-miterlimit="10"/>
<path d="M197.65 123.96L196.68 121.59H193.59L192.62 123.96H192.1L195.16 116.51L198.18 123.96H197.65ZM193.76 121.16H196.51L195.15 117.74L193.76 121.16Z" fill="#201600" stroke="#201600" stroke-width="0.3" stroke-miterlimit="10"/>
<path d="M123.79 17.4V17.95H119.98V21.27H123.71V21.82H119.98V26.01H123.79V26.56H119.37V17.4H123.79Z" fill="#201600"/>
<path d="M130.41 18.58L129.97 18.95C129.58 18.2 128.98 17.82 128.16 17.82C127.64 17.82 127.22 17.99 126.91 18.31C126.6 18.64 126.45 19.04 126.45 19.52C126.45 19.76 126.48 19.96 126.55 20.14C126.62 20.31 126.74 20.47 126.92 20.62C127.1 20.77 127.26 20.88 127.4 20.96C127.54 21.04 127.76 21.15 128.06 21.3C129.05 21.78 129.67 22.1 129.9 22.26C130.55 22.71 130.88 23.3 130.88 24.03C130.88 24.79 130.6 25.43 130.04 25.94C129.48 26.45 128.8 26.71 128.01 26.71C127.13 26.71 126.42 26.39 125.87 25.75C125.6 25.44 125.41 25.1 125.28 24.75L125.8 24.5C125.91 24.83 126.08 25.12 126.3 25.38C126.71 25.9 127.29 26.16 128.03 26.16C128.66 26.16 129.18 25.96 129.61 25.56C130.04 25.16 130.25 24.65 130.25 24.05C130.25 23.45 129.95 22.97 129.35 22.61C129.17 22.51 128.6 22.22 127.64 21.74C127.21 21.53 126.88 21.35 126.66 21.19C126.44 21.03 126.25 20.84 126.11 20.6C125.92 20.28 125.82 19.93 125.82 19.56C125.82 18.96 126.02 18.44 126.43 17.97C126.84 17.51 127.42 17.28 128.18 17.28C128.65 17.28 129.08 17.39 129.48 17.62C129.87 17.84 130.18 18.16 130.41 18.58Z" fill="#201600"/>
<path d="M137.2 17.95H134.81V26.56H134.2V17.95H131.81V17.4H137.19V17.95H137.2Z" fill="#201600"/>
<path d="M195.35 26.56H189.68L193.21 22.69C193.7 22.14 194.03 21.73 194.22 21.45C194.58 20.9 194.76 20.38 194.76 19.88C194.76 19.29 194.56 18.8 194.16 18.41C193.76 18.02 193.25 17.82 192.62 17.82C191.96 17.82 191.43 18.04 191.03 18.49C190.66 18.89 190.48 19.39 190.49 19.99H189.88C189.87 19.22 190.11 18.58 190.61 18.07C191.13 17.54 191.81 17.27 192.65 17.27C193.44 17.27 194.09 17.52 194.61 18.02C195.12 18.52 195.38 19.14 195.38 19.88C195.38 20.53 195.16 21.16 194.72 21.76C194.51 22.05 194.24 22.38 193.91 22.75L190.96 26H195.35V26.56Z" fill="#201600"/>
<path d="M200.19 17.28C201.02 17.28 201.74 17.65 202.36 18.39C203.14 19.31 203.53 20.51 203.53 21.99C203.53 23.46 203.14 24.66 202.36 25.59C201.73 26.34 201 26.72 200.19 26.72C199.38 26.72 198.66 26.34 198.02 25.59C197.24 24.67 196.85 23.47 196.85 21.99C196.85 20.52 197.24 19.32 198.02 18.39C198.64 17.65 199.37 17.28 200.19 17.28ZM200.19 26.17C200.82 26.17 201.4 25.86 201.9 25.24C202.56 24.43 202.89 23.34 202.89 22C202.89 20.66 202.56 19.58 201.9 18.76C201.4 18.15 200.83 17.84 200.19 17.84C199.55 17.84 198.98 18.15 198.48 18.76C197.82 19.58 197.49 20.66 197.49 22C197.49 23.35 197.82 24.43 198.48 25.24C198.99 25.85 199.56 26.17 200.19 26.17Z" fill="#201600"/>
<path d="M207.76 17.28C208.59 17.28 209.31 17.65 209.93 18.39C210.71 19.31 211.1 20.51 211.1 21.99C211.1 23.46 210.71 24.66 209.93 25.59C209.3 26.34 208.57 26.72 207.76 26.72C206.95 26.72 206.23 26.34 205.59 25.59C204.81 24.67 204.42 23.47 204.42 21.99C204.42 20.52 204.81 19.32 205.59 18.39C206.21 17.65 206.93 17.28 207.76 17.28ZM207.76 26.17C208.39 26.17 208.97 25.86 209.47 25.24C210.13 24.43 210.46 23.34 210.46 22C210.46 20.66 210.13 19.58 209.47 18.76C208.97 18.15 208.4 17.84 207.76 17.84C207.12 17.84 206.55 18.15 206.05 18.76C205.39 19.58 205.06 20.66 205.06 22C205.06 23.35 205.39 24.43 206.05 25.24C206.55 25.85 207.12 26.17 207.76 26.17Z" fill="#201600"/>
<path d="M216.48 21.81C216.96 21.99 217.33 22.3 217.59 22.72C217.85 23.14 217.98 23.61 217.98 24.13C217.98 24.91 217.72 25.53 217.21 26C216.69 26.47 216.06 26.71 215.32 26.71C214.57 26.71 213.94 26.47 213.43 26C212.91 25.53 212.66 24.9 212.66 24.13C212.66 23.61 212.79 23.14 213.05 22.72C213.31 22.3 213.68 22 214.16 21.81C213.3 21.36 212.88 20.66 212.88 19.69C212.88 19 213.11 18.43 213.58 17.97C214.05 17.51 214.63 17.28 215.32 17.28C216.01 17.28 216.59 17.51 217.06 17.97C217.53 18.43 217.76 19.01 217.76 19.69C217.76 20.66 217.34 21.36 216.48 21.81ZM213.85 25.58C214.22 25.97 214.71 26.16 215.32 26.16C215.93 26.16 216.42 25.97 216.79 25.58C217.16 25.19 217.35 24.71 217.35 24.13C217.35 23.53 217.16 23.03 216.78 22.65C216.4 22.27 215.91 22.07 215.32 22.07C214.72 22.07 214.23 22.26 213.86 22.65C213.48 23.03 213.29 23.53 213.29 24.13C213.29 24.71 213.48 25.19 213.85 25.58ZM214.04 21.02C214.39 21.37 214.82 21.55 215.32 21.55C215.82 21.55 216.24 21.37 216.6 21.02C216.95 20.67 217.13 20.23 217.13 19.69C217.13 19.15 216.96 18.7 216.61 18.35C216.26 18 215.83 17.82 215.33 17.82C214.82 17.82 214.4 18 214.05 18.35C213.7 18.7 213.53 19.15 213.53 19.69C213.51 20.23 213.69 20.67 214.04 21.02Z" fill="#201600"/>
<path d="M221.22 91.77H109.8V92.48H221.22V91.77Z" fill="#201600"/>
<path d="M140.78 23.17C141.216 23.17 141.57 22.8163 141.57 22.38C141.57 21.9437 141.216 21.59 140.78 21.59C140.344 21.59 139.99 21.9437 139.99 22.38C139.99 22.8163 140.344 23.17 140.78 23.17Z" fill="#201600"/>
</g>
<defs>
<clipPath id="clip0_1_2">
<rect width="330" height="126" fill="white"/>
</clipPath>
</defs>
</svg>
